<svg xmlns="http://www.w3.org/2000/svg" viewBox="0 0 1920 954"><defs><style>.cls-1{isolation:isolate;}.cls-2{fill:#ffe89f;}.cls-3{fill:#efe2d6;}.cls-11,.cls-3,.cls-6,.cls-9{mix-blend-mode:multiply;}.cls-4{fill:#e9518d;}.cls-5{fill:#684091;}.cls-6{fill:#e8e0e7;}.cls-7{fill:#125882;}.cls-8{fill:#5eb6e7;}.cls-9{fill:#d6e3ec;}.cls-10{fill:#fcc306;}.cls-11{fill:#e9f1f8;}.cls-12{fill:#68158d;opacity:0.58;}.cls-13{fill:#316788;}.cls-14{fill:#00948a;opacity:0.78;}</style></defs><g class="cls-1"><g id="Layer_1" data-name="Layer 1"><rect class="cls-2" x="887.23" y="645.52" width="0.26" height="3.54"/><rect class="cls-2" x="892.23" y="645.52" width="0.26" height="3.54"/><path class="cls-2" d="M892.9,779.55a.21.21,0,0,1-.22.21h-5.59a.22.22,0,0,1-.22-.22l-.63-5.11a.21.21,0,0,1,.22-.21h6.85a.23.23,0,0,1,.23.22Z" transform="translate(0 -126.39)"/><path class="cls-3" d="M893.31,774.21h-.38a7.37,7.37,0,0,1-1.31,3.63c-1.15,1.52-3.09,1.28-4.81,1.17l.06.53a.22.22,0,0,0,.22.22h5.59a.21.21,0,0,0,.22-.21l.64-5.12A.23.23,0,0,0,893.31,774.21Z" transform="translate(0 -126.39)"/><path class="cls-4" d="M890.18,738.15h-.37c-6.64,0-12.85,4.7-12.85,12.84,0,6.42,5.11,14.77,10.29,19.45.29.26,0,1.55,0,1.55h5.16s-.37-1.28-.08-1.54c5.2-4.63,10.19-12.54,10.19-19C902.52,743.53,897.74,738.31,890.18,738.15Z" transform="translate(0 -126.39)"/><path class="cls-5" d="M889.87,738.15h-.11c-1.92,0-3.72,4.7-3.72,12.84a74,74,0,0,0,3,19.45,9.87,9.87,0,0,1,0,1.55h1.5a9.17,9.17,0,0,1,0-1.54,69.52,69.52,0,0,0,3-19C893.45,743.53,892.06,738.31,889.87,738.15Z" transform="translate(0 -126.39)"/><path class="cls-5" d="M888.55,772s.36-1.75,0-2.17c-6-6.8-8.72-12.89-8.72-19,0-6.56,3.79-10.94,8.61-12.55A12.39,12.39,0,0,0,877,751c0,6.42,5.11,14.77,10.29,19.45.29.26,0,1.55,0,1.55Z" transform="translate(0 -126.39)"/><path class="cls-5" d="M891.21,772s-.36-1.75,0-2.17c6-6.81,8.71-12.89,8.71-19,0-6.56-3.78-10.94-8.6-12.55A12.39,12.39,0,0,1,902.8,751c0,6.41-5.11,14.76-10.29,19.45-.29.26,0,1.55,0,1.55Z" transform="translate(0 -126.39)"/><path class="cls-6" d="M898.15,740.91a12.67,12.67,0,0,0-8-2.76H890a11.45,11.45,0,0,1,4.6,3.88,15.9,15.9,0,0,1,2.73,6.76,17.14,17.14,0,0,1-.24,7.44,65.69,65.69,0,0,1-3.51,8.36c-.32.7-.6,1.42-.93,2.12a13.79,13.79,0,0,0-.75,1.83,11.33,11.33,0,0,0-.24,3.44h.88s-.29-1.29,0-1.55c5.18-4.69,10.29-13,10.29-19.45A12.4,12.4,0,0,0,898.15,740.91Z" transform="translate(0 -126.39)"/><path class="cls-7" d="M1441.14,700.85c-295.33-43.48-583.17,51-854.52,229.37C321.83,1104.3,14.7,794.46,0,779.37v301H1919.37V817.78S1734.74,744.07,1441.14,700.85Z" transform="translate(0 -126.39)"/><rect class="cls-2" x="666.81" y="754.48" width="0.34" height="4.58"/><rect class="cls-2" x="673.29" y="754.48" width="0.34" height="4.58"/><path class="cls-2" d="M674.16,890.77a.29.29,0,0,1-.29.28h-7.24a.29.29,0,0,1-.29-.28l-.82-6.62a.29.29,0,0,1,.29-.28h8.88a.29.29,0,0,1,.28.28Z" transform="translate(0 -126.39)"/><path class="cls-3" d="M674.69,883.86h-.51a9.62,9.62,0,0,1-1.68,4.7c-1.5,2-4,1.65-6.24,1.52l.08.68a.29.29,0,0,0,.29.28h7.24a.29.29,0,0,0,.29-.28l.81-6.63A.29.29,0,0,0,674.69,883.86Z" transform="translate(0 -126.39)"/><path class="cls-8" d="M670.62,837.14h-.48c-8.59,0-16.63,6.08-16.63,16.62,0,8.32,6.61,19.13,13.33,25.2.37.34,0,2,0,2h6.68s-.48-1.65-.11-2c6.73-6,13.21-16.24,13.21-24.57C686.62,844.12,680.42,837.35,670.62,837.14Z" transform="translate(0 -126.39)"/><path class="cls-5" d="M670.22,837.14h-.13c-2.49,0-4.82,6.08-4.82,16.62a95.64,95.64,0,0,0,3.86,25.2,13.27,13.27,0,0,1,0,2h1.93a11.31,11.31,0,0,1,0-2,90.22,90.22,0,0,0,3.83-24.57C674.86,844.12,673.06,837.35,670.22,837.14Z" transform="translate(0 -126.39)"/><path class="cls-5" d="M668.51,881s.46-2.27,0-2.81c-7.75-8.82-11.29-16.7-11.29-24.68,0-8.48,4.91-14.16,11.15-16.24a16,16,0,0,0-14.85,16.53c0,8.32,6.61,19.13,13.33,25.2.37.34,0,2,0,2Z" transform="translate(0 -126.39)"/><path class="cls-5" d="M672,881s-.46-2.27,0-2.81c7.75-8.82,11.28-16.7,11.28-24.68,0-8.48-4.9-14.16-11.14-16.24C680,838,687,844,687,853.77c0,8.32-6.61,19.13-13.33,25.2-.37.34,0,2,0,2Z" transform="translate(0 -126.39)"/><path class="cls-9" d="M680.94,840.72a16.32,16.32,0,0,0-10.32-3.58h-.26a15,15,0,0,1,6,5,20.76,20.76,0,0,1,3.53,8.75,22.14,22.14,0,0,1-.31,9.65c-1.06,3.75-3,7.26-4.55,10.82-.41.91-.78,1.84-1.2,2.75a15.84,15.84,0,0,0-1,2.38,14.7,14.7,0,0,0-.31,4.45h1.13s-.37-1.67,0-2c6.72-6.07,13.33-16.88,13.33-25.2A16.06,16.06,0,0,0,680.94,840.72Z" transform="translate(0 -126.39)"/><rect class="cls-2" x="1023.22" y="774.54" width="0.78" height="10.51"/><rect class="cls-2" x="1038.08" y="774.54" width="0.78" height="10.51"/><path class="cls-2" d="M1040.07,923.63a.65.65,0,0,1-.66.64l-16.6,0a.65.65,0,0,1-.66-.64l-1.88-15.19a.65.65,0,0,1,.65-.64h20.37a.66.66,0,0,1,.66.64Z" transform="translate(0 -126.39)"/><path class="cls-3" d="M1041.29,907.78h-1.15a22,22,0,0,1-3.87,10.78c-3.44,4.51-9.18,3.78-14.32,3.48l.2,1.57a.65.65,0,0,0,.66.64l16.6,0a.65.65,0,0,0,.66-.64l1.88-15.21A.66.66,0,0,0,1041.29,907.78Z" transform="translate(0 -126.39)"/><path class="cls-10" d="M1032,800.58h0l-1.1,0c-19.72,0-38.17,13.95-38.17,38.15,0,19.07,15.17,43.89,30.58,57.82.85.77,0,4.6,0,4.6h15.33s-1.1-3.8-.24-4.56c15.44-13.77,30.3-37.28,30.3-56.38C1068.67,816.59,1054.44,801.07,1032,800.58Z" transform="translate(0 -126.39)"/><path class="cls-5" d="M1031.06,800.58h0l-.33,0c-5.71,0-11.05,13.95-11.05,38.15,0,19.07,4.39,43.89,8.86,57.82a29,29,0,0,1,0,4.6H1033a26.14,26.14,0,0,1-.07-4.56c4.47-13.77,8.78-37.28,8.78-56.38C1041.69,816.59,1037.57,801.07,1031.06,800.58Z" transform="translate(0 -126.39)"/><path class="cls-5" d="M1027.13,901.12s1.06-5.21,0-6.45c-17.78-20.23-25.9-38.32-25.9-56.61,0-19.48,11.25-32.51,25.58-37.29-18.11,1.79-34.08,15.43-34.08,38,0,19.07,15.17,43.89,30.58,57.82.85.77,0,4.6,0,4.6Z" transform="translate(0 -126.39)"/><path class="cls-5" d="M1035,901.14s-1.06-5.2,0-6.44c17.77-20.24,25.89-38.32,25.89-56.62,0-19.47-11.25-32.51-25.58-37.28,18.11,1.79,34.08,15.43,34.08,38,0,19.07-15.17,43.89-30.58,57.81-.85.78,0,4.61,0,4.61Z" transform="translate(0 -126.39)"/><path class="cls-11" d="M1055.65,808.79c-6.11-5.09-14.15-8-23.68-8.21h-.61c5.5,2.36,10.19,6.72,13.67,11.53a47.64,47.64,0,0,1,8.11,20.09c1.22,7.28,1.32,15-.71,22.13C1050,863,1045.58,871,1042,879.16c-.92,2.1-1.78,4.23-2.75,6.31a37.4,37.4,0,0,0-2.22,5.46c-.92,3.28-.83,6.78-.72,10.22l2.6,0s-.85-3.83,0-4.61c15.41-13.92,30.58-38.74,30.58-57.81C1069.47,825.47,1063.92,815.28,1055.65,808.79Z" transform="translate(0 -126.39)"/><path class="cls-12" d="M1887.91,1080c-67.9-18.5-155.65-112.3-155.65-112.3-256-225.1-447.38-25.32-558.53,25.32s-277.15,53.47-505.06-43.61S290.22,931.12,196,959.26,1,901.61,1,901.61L0,991.16V1080Z" transform="translate(0 -126.39)"/><path class="cls-13" d="M1920,733.9c-12.08-17.81-112.67,45.47-112.67,45.47-417.84,284.46-757.6,306.28-945.23,180.19-75.14-50.49-142.82-26.6-197,20.2C439.41,1114.16,464.5,866.84,0,856.69V1080H1920Z" transform="translate(0 -126.39)"/><path class="cls-14" d="M1920,865c-.36.44-.89,1.08-1.59,1.9-18.68,21.89-157.19,171-433.76,133.19-298.25-40.8-280-181.49-507.88-92.85s-284.18,98.48-368.6,53.46-160.38-42.21-249,23.91-250.57,71-358.12-67.2L0,1001v79H1920Z" transform="translate(0 -126.39)"/><rect class="cls-2" x="1322.54" y="601.6" width="0.58" height="7.83"/><rect class="cls-2" x="1333.62" y="601.6" width="0.58" height="7.83"/><path class="cls-2" d="M1335.11,744.92a.49.49,0,0,1-.5.48l-12.38,0a.48.48,0,0,1-.49-.48l-1.4-11.32a.49.49,0,0,1,.49-.48H1336a.48.48,0,0,1,.49.48Z" transform="translate(0 -126.39)"/><path class="cls-3" d="M1336,733.1h-.85a16.44,16.44,0,0,1-2.89,8c-2.57,3.36-6.85,2.82-10.68,2.59l.15,1.17a.48.48,0,0,0,.49.48l12.38,0a.49.49,0,0,0,.5-.48l1.39-11.34A.48.48,0,0,0,1336,733.1Z" transform="translate(0 -126.39)"/><path class="cls-10" d="M1329.06,653.18h0l-.82,0c-14.7,0-28.46,10.41-28.46,28.45,0,14.22,11.31,32.72,22.8,43.11.64.57,0,3.43,0,3.43H1334s-.81-2.83-.18-3.4c11.52-10.26,22.6-27.8,22.6-42C1356.43,665.11,1345.82,653.54,1329.06,653.18Z" transform="translate(0 -126.39)"/><path class="cls-5" d="M1328.38,653.18h0l-.24,0c-4.26,0-8.24,10.41-8.24,28.45,0,14.22,3.27,32.72,6.6,43.11a20.36,20.36,0,0,1,0,3.43h3.32a20,20,0,0,1-.06-3.4,154.39,154.39,0,0,0,6.55-42C1336.31,665.11,1333.24,653.54,1328.38,653.18Z" transform="translate(0 -126.39)"/><path class="cls-5" d="M1325.46,728.14s.78-3.89,0-4.81c-13.26-15.09-19.31-28.57-19.31-42.21,0-14.53,8.39-24.24,19.07-27.8-13.5,1.33-25.41,11.5-25.41,28.29,0,14.22,11.31,32.72,22.8,43.11.64.57,0,3.43,0,3.43Z" transform="translate(0 -126.39)"/><path class="cls-5" d="M1331.35,728.15s-.79-3.88,0-4.81c13.25-15.08,19.31-28.57,19.31-42.21,0-14.52-8.4-24.23-19.07-27.79,13.5,1.33,25.41,11.5,25.41,28.29,0,14.22-11.32,32.72-22.81,43.11-.63.57,0,3.43,0,3.43Z" transform="translate(0 -126.39)"/><path class="cls-11" d="M1346.72,659.29c-4.55-3.79-10.55-6-17.66-6.11h-.45a25.49,25.49,0,0,1,10.19,8.6,35.43,35.43,0,0,1,6,15,38,38,0,0,1-.53,16.5c-1.82,6.43-5.11,12.43-7.79,18.51-.69,1.57-1.33,3.16-2,4.71a28.24,28.24,0,0,0-1.66,4.07,24.85,24.85,0,0,0-.53,7.62h1.93s-.63-2.86,0-3.43c11.49-10.39,22.81-28.89,22.81-43.11C1357,671.73,1352.89,664.13,1346.72,659.29Z" transform="translate(0 -126.39)"/><rect class="cls-2" x="112" y="74.84" width="0.58" height="7.83"/><rect class="cls-2" x="123.08" y="74.84" width="0.58" height="7.83"/><path class="cls-2" d="M124.56,218.15a.49.49,0,0,1-.49.48l-12.38,0a.48.48,0,0,1-.49-.48l-1.41-11.32a.49.49,0,0,1,.49-.48h15.19a.49.49,0,0,1,.49.48Z" transform="translate(0 -126.39)"/><path class="cls-3" d="M125.47,206.33h-.86a16.34,16.34,0,0,1-2.89,8c-2.56,3.36-6.84,2.82-10.67,2.59l.15,1.17a.48.48,0,0,0,.49.48l12.38,0a.49.49,0,0,0,.49-.48l1.4-11.34A.49.49,0,0,0,125.47,206.33Z" transform="translate(0 -126.39)"/><path class="cls-10" d="M118.52,126.41h0l-.82,0c-14.71,0-28.46,10.41-28.46,28.45,0,14.22,11.31,32.72,22.8,43.11.63.58,0,3.43,0,3.43h11.43s-.82-2.84-.18-3.41c11.51-10.26,22.59-27.8,22.59-42C145.88,138.34,135.27,126.77,118.52,126.41Z" transform="translate(0 -126.39)"/><path class="cls-5" d="M117.84,126.41h0l-.24,0c-4.26,0-8.25,10.41-8.25,28.45,0,14.22,3.28,32.72,6.61,43.11a21.47,21.47,0,0,1,0,3.43h3.31a19.28,19.28,0,0,1,0-3.41,154.78,154.78,0,0,0,6.55-42C125.77,138.34,122.69,126.77,117.84,126.41Z" transform="translate(0 -126.39)"/><path class="cls-5" d="M114.91,201.37s.79-3.89,0-4.81C101.63,181.47,95.58,168,95.58,154.35c0-14.53,8.39-24.24,19.07-27.8-13.5,1.33-25.41,11.5-25.41,28.29,0,14.22,11.31,32.72,22.8,43.11.63.58,0,3.43,0,3.43Z" transform="translate(0 -126.39)"/><path class="cls-5" d="M120.81,201.38s-.79-3.88,0-4.8c13.25-15.09,19.3-28.57,19.3-42.22,0-14.52-8.39-24.23-19.07-27.79,13.5,1.33,25.41,11.5,25.41,28.29,0,14.22-11.31,32.72-22.8,43.11-.64.57,0,3.43,0,3.43Z" transform="translate(0 -126.39)"/><path class="cls-11" d="M136.18,132.52c-4.56-3.79-10.56-6-17.66-6.11h-.46a25.52,25.52,0,0,1,10.2,8.6,35.47,35.47,0,0,1,6,15,37.81,37.81,0,0,1-.52,16.5c-1.82,6.43-5.11,12.43-7.8,18.52-.69,1.56-1.33,3.15-2,4.7a26.53,26.53,0,0,0-1.66,4.07,25.19,25.19,0,0,0-.54,7.62h1.94s-.64-2.86,0-3.43c11.49-10.39,22.8-28.89,22.8-43.11C146.48,145,142.34,137.36,136.18,132.52Z" transform="translate(0 -126.39)"/><rect class="cls-2" x="384.69" y="774.15" width="0.75" height="10.08"/><rect class="cls-2" x="398.95" y="774.15" width="0.75" height="10.08"/><path class="cls-2" d="M400.86,922.32a.62.62,0,0,1-.63.61l-15.94,0a.61.61,0,0,1-.62-.62l-1.81-14.56a.63.63,0,0,1,.63-.62H402a.63.63,0,0,1,.63.61Z" transform="translate(0 -126.39)"/><path class="cls-3" d="M402,907.11h-1.11a21.1,21.1,0,0,1-3.71,10.34c-3.3,4.33-8.81,3.63-13.74,3.34l.2,1.5a.61.61,0,0,0,.62.62l15.94,0a.62.62,0,0,0,.63-.61l1.8-14.6A.63.63,0,0,0,402,907.11Z" transform="translate(0 -126.39)"/><path class="cls-10" d="M393.08,804.28h0l-1.05,0c-18.92,0-36.62,13.39-36.62,36.6,0,18.3,14.56,42.1,29.34,55.47.82.74,0,4.41,0,4.41h14.7s-1.05-3.64-.23-4.38c14.82-13.2,29.07-35.76,29.07-54.08C428.29,819.64,414.64,804.75,393.08,804.28Z" transform="translate(0 -126.39)"/><path class="cls-5" d="M392.21,804.28h0l-.31,0c-5.48,0-10.61,13.39-10.61,36.6,0,18.3,4.22,42.1,8.5,55.47a26.63,26.63,0,0,1,0,4.41h4.26a25.21,25.21,0,0,1-.06-4.38c4.29-13.2,8.42-35.76,8.42-54.08C402.41,819.64,398.45,804.75,392.21,804.28Z" transform="translate(0 -126.39)"/><path class="cls-5" d="M388.45,900.72s1-5,0-6.19c-17.06-19.4-24.84-36.75-24.84-54.3,0-18.69,10.79-31.19,24.53-35.77-17.36,1.71-32.69,14.8-32.69,36.4,0,18.3,14.56,42.1,29.34,55.47.82.74,0,4.41,0,4.41Z" transform="translate(0 -126.39)"/><path class="cls-5" d="M396,900.74s-1-5,0-6.18c17.05-19.41,24.84-36.76,24.84-54.31,0-18.68-10.8-31.18-24.54-35.76,17.37,1.71,32.69,14.79,32.69,36.4,0,18.29-14.55,42.1-29.33,55.46-.82.74,0,4.42,0,4.42Z" transform="translate(0 -126.39)"/><path class="cls-11" d="M415.8,812.15c-5.86-4.88-13.58-7.67-22.72-7.87h-.58a32.87,32.87,0,0,1,13.12,11.07,45.6,45.6,0,0,1,7.77,19.27,48.75,48.75,0,0,1-.67,21.23c-2.35,8.27-6.58,16-10,23.82-.89,2-1.71,4.06-2.64,6.05a37,37,0,0,0-2.13,5.23,32.51,32.51,0,0,0-.69,9.81l2.5,0s-.82-3.68,0-4.42c14.78-13.36,29.33-37.17,29.33-55.46C429.06,828.15,423.73,818.38,415.8,812.15Z" transform="translate(0 -126.39)"/><rect class="cls-2" x="1676.96" y="137.25" width="0.81" height="10.84"/><rect class="cls-2" x="1692.29" y="137.25" width="0.8" height="10.84"/><path class="cls-2" d="M1694.35,287.06a.67.67,0,0,1-.68.66l-17.14,0a.66.66,0,0,1-.67-.66l-1.95-15.66a.67.67,0,0,1,.68-.66h21a.68.68,0,0,1,.68.66Z" transform="translate(0 -126.39)"/><path class="cls-3" d="M1695.6,270.7h-1.18a22.67,22.67,0,0,1-4,11.12c-3.55,4.66-9.47,3.91-14.76,3.6l.2,1.61a.66.66,0,0,0,.67.66l17.14,0a.67.67,0,0,0,.68-.66l1.93-15.7A.68.68,0,0,0,1695.6,270.7Z" transform="translate(0 -126.39)"/><path class="cls-4" d="M1686,160.11h0l-1.13,0c-20.35,0-39.38,14.39-39.38,39.36,0,19.67,15.65,45.28,31.55,59.65.88.79,0,4.75,0,4.75h15.82s-1.14-3.93-.26-4.72c15.94-14.19,31.27-38.46,31.27-58.16C1723.85,176.63,1709.17,160.62,1686,160.11Z" transform="translate(0 -126.39)"/><path class="cls-5" d="M1685,160.11h0l-.33,0c-5.89,0-11.41,14.39-11.41,39.36,0,19.67,4.54,45.28,9.15,59.65a29.66,29.66,0,0,1,0,4.75H1687a27.82,27.82,0,0,1-.08-4.72c4.62-14.19,9.06-38.46,9.06-58.16C1696,176.63,1691.76,160.62,1685,160.11Z" transform="translate(0 -126.39)"/><path class="cls-5" d="M1681,263.83s1.09-5.37,0-6.65c-18.34-20.88-26.72-39.53-26.72-58.41,0-20.09,11.62-33.54,26.39-38.46-18.68,1.84-35.16,15.92-35.16,39.15,0,19.67,15.65,45.28,31.55,59.65.88.79,0,4.75,0,4.75Z" transform="translate(0 -126.39)"/><path class="cls-5" d="M1689.15,263.86s-1.09-5.37,0-6.66c18.34-20.87,26.71-39.52,26.71-58.4,0-20.09-11.6-33.54-26.38-38.46,18.68,1.84,35.16,15.91,35.16,39.15,0,19.67-15.65,45.27-31.55,59.64-.88.8,0,4.75,0,4.75Z" transform="translate(0 -126.39)"/><path class="cls-6" d="M1710.42,168.58c-6.3-5.25-14.61-8.26-24.44-8.47h-.62c5.67,2.44,10.51,6.93,14.1,11.9a49.09,49.09,0,0,1,8.37,20.73c1.26,7.5,1.36,15.45-.73,22.82-2.52,8.89-7.07,17.2-10.79,25.62-1,2.17-1.83,4.36-2.82,6.51a38.67,38.67,0,0,0-2.3,5.63c-1,3.39-.86,7-.74,10.54l2.68,0s-.88-3.95,0-4.75c15.9-14.37,31.55-40,31.55-59.64C1724.68,185.79,1719,175.27,1710.42,168.58Z" transform="translate(0 -126.39)"/><rect class="cls-2" x="277.64" y="321.03" width="0.81" height="10.84"/><rect class="cls-2" x="292.97" y="321.03" width="0.8" height="10.84"/><path class="cls-2" d="M295,470.84a.68.68,0,0,1-.68.66l-17.14,0a.66.66,0,0,1-.67-.66l-2-15.66a.67.67,0,0,1,.68-.66h21a.68.68,0,0,1,.68.66Z" transform="translate(0 -126.39)"/><path class="cls-3" d="M296.28,454.48H295.1a22.67,22.67,0,0,1-4,11.12c-3.55,4.66-9.47,3.91-14.77,3.6l.21,1.61a.66.66,0,0,0,.67.66l17.14,0a.68.68,0,0,0,.68-.66l1.93-15.7A.68.68,0,0,0,296.28,454.48Z" transform="translate(0 -126.39)"/><path class="cls-4" d="M286.66,343.89h0l-1.13,0c-20.35,0-39.38,14.39-39.38,39.36,0,19.67,15.65,45.28,31.55,59.64.88.8,0,4.76,0,4.76h15.82s-1.14-3.93-.26-4.72c15.94-14.19,31.27-38.46,31.27-58.16C324.53,360.41,309.85,344.4,286.66,343.89Z" transform="translate(0 -126.39)"/><path class="cls-5" d="M285.72,343.89h0l-.33,0c-5.89,0-11.41,14.39-11.41,39.36,0,19.67,4.53,45.28,9.14,59.64a28.64,28.64,0,0,1,0,4.76h4.59a27.82,27.82,0,0,1-.08-4.72c4.62-14.19,9.06-38.46,9.06-58.16C296.69,360.41,292.44,344.4,285.72,343.89Z" transform="translate(0 -126.39)"/><path class="cls-5" d="M281.68,447.61s1.09-5.37,0-6.65c-18.35-20.88-26.72-39.53-26.72-58.41,0-20.09,11.62-33.54,26.39-38.46-18.68,1.84-35.16,15.92-35.16,39.15,0,19.67,15.65,45.28,31.55,59.64.88.8,0,4.76,0,4.76Z" transform="translate(0 -126.39)"/><path class="cls-5" d="M289.83,447.64s-1.09-5.37,0-6.66c18.34-20.87,26.71-39.53,26.71-58.4,0-20.09-11.61-33.54-26.38-38.46,18.68,1.84,35.16,15.91,35.16,39.15,0,19.67-15.66,45.27-31.55,59.64-.88.8,0,4.75,0,4.75Z" transform="translate(0 -126.39)"/><path class="cls-6" d="M311.1,352.36c-6.3-5.25-14.61-8.26-24.44-8.47H286c5.67,2.44,10.51,6.93,14.1,11.9a49.09,49.09,0,0,1,8.37,20.73c1.26,7.5,1.36,15.45-.73,22.82-2.53,8.89-7.07,17.2-10.79,25.62-.95,2.17-1.83,4.36-2.83,6.51a39.29,39.29,0,0,0-2.29,5.63c-1,3.38-.86,7-.74,10.54l2.68,0s-.88-4,0-4.75c15.89-14.37,31.55-40,31.55-59.64C325.36,369.56,319.63,359.05,311.1,352.36Z" transform="translate(0 -126.39)"/><rect class="cls-2" x="1423.43" y="414.37" width="0.7" height="9.33"/><rect class="cls-2" x="1436.62" y="414.37" width="0.69" height="9.33"/><path class="cls-2" d="M1438.39,560.9a.58.58,0,0,1-.59.57l-14.73,0a.58.58,0,0,1-.59-.57l-1.67-13.48a.58.58,0,0,1,.59-.56h18.07a.57.57,0,0,1,.58.57Z" transform="translate(0 -126.39)"/><path class="cls-3" d="M1439.47,546.83h-1a19.48,19.48,0,0,1-3.44,9.57c-3,4-8.15,3.35-12.7,3.09l.17,1.39a.58.58,0,0,0,.59.57l14.73,0a.58.58,0,0,0,.59-.57l1.66-13.5A.57.57,0,0,0,1439.47,546.83Z" transform="translate(0 -126.39)"/><path class="cls-8" d="M1431.19,451.72h-1c-17.5,0-33.87,12.38-33.87,33.85,0,16.92,13.46,38.94,27.13,51.3.77.68,0,4.09,0,4.09l13.61,0s-1-3.37-.22-4c13.71-12.2,26.89-33.08,26.89-50C1463.76,465.92,1451.14,452.15,1431.19,451.72Z" transform="translate(0 -126.39)"/><path class="cls-5" d="M1430.38,451.72h-.28c-5.07,0-9.81,12.38-9.81,33.85,0,16.92,3.9,38.94,7.86,51.3a25,25,0,0,1,0,4.09l3.94,0a23.44,23.44,0,0,1-.06-4c4-12.2,7.79-33.08,7.79-50C1439.82,465.92,1436.16,452.15,1430.38,451.72Z" transform="translate(0 -126.39)"/><path class="cls-5" d="M1426.9,540.92s.94-4.61,0-5.72c-15.77-18-23-34-23-50.23,0-17.28,10-28.84,22.69-33.08-16.07,1.59-30.24,13.69-30.24,33.67,0,16.92,13.46,38.94,27.13,51.3.77.68,0,4.09,0,4.09Z" transform="translate(0 -126.39)"/><path class="cls-5" d="M1433.92,541s-.94-4.62,0-5.73c15.78-18,23-34,23-50.23,0-17.28-10-28.84-22.69-33.08,16.06,1.59,30.23,13.69,30.23,33.67,0,16.92-13.46,38.94-27.13,51.3-.76.68,0,4.09,0,4.09Z" transform="translate(0 -126.39)"/><path class="cls-9" d="M1452.21,459c-5.42-4.51-12.56-7.1-21-7.28h-.53A30.46,30.46,0,0,1,1442.79,462a42.14,42.14,0,0,1,7.19,17.82,45,45,0,0,1-.63,19.64c-2.16,7.65-6.08,14.79-9.27,22-.82,1.86-1.58,3.75-2.43,5.6a32.78,32.78,0,0,0-2,4.84A29.91,29.91,0,0,0,1435,541l2.31,0s-.76-3.41,0-4.09c13.67-12.36,27.13-34.38,27.13-51.3C1464.47,473.8,1459.54,464.76,1452.21,459Z" transform="translate(0 -126.39)"/><rect class="cls-2" x="332.35" y="729.7" width="1.23" height="16.5"/><rect class="cls-2" x="355.67" y="729.7" width="1.23" height="16.5"/><path class="cls-2" d="M358.81,891.73a1,1,0,0,1-1,1l-26.07,0a1,1,0,0,1-1-1l-3-23.84a1,1,0,0,1,1-1h32a1,1,0,0,1,1,1Z" transform="translate(0 -126.39)"/><path class="cls-3" d="M360.71,866.84h-1.8c-.72,6.08-2.46,12.18-6.08,16.92-5.41,7.08-14.42,5.94-22.48,5.47l.31,2.46a1,1,0,0,0,1,1l26.07,0a1,1,0,0,0,1-1l2.93-23.89A1,1,0,0,0,360.71,866.84Z" transform="translate(0 -126.39)"/><path class="cls-8" d="M346.07,698.54h0c-.57,0-1.14,0-1.72,0-31,0-59.92,21.9-59.92,59.9,0,29.94,23.81,68.9,48,90.77,1.35,1.21,0,7.23,0,7.23l24.07,0s-1.72-6-.38-7.17c24.25-21.6,47.57-58.53,47.57-88.51C403.69,723.67,381.36,699.31,346.07,698.54Z" transform="translate(0 -126.39)"/><path class="cls-5" d="M344.64,698.54h0a4.07,4.07,0,0,0-.5,0c-9,0-17.36,21.9-17.36,59.9,0,29.94,6.9,68.9,13.91,90.77.38,1.21,0,7.23,0,7.23l7,0s-.5-6-.1-7.17c7-21.6,13.78-58.53,13.78-88.51C361.34,723.67,354.87,699.31,344.64,698.54Z" transform="translate(0 -126.39)"/><path class="cls-5" d="M338.48,856.38s1.66-8.17-.05-10.12c-27.91-31.77-40.66-60.16-40.66-88.88,0-30.58,17.67-51,40.16-58.54-28.43,2.81-53.5,24.22-53.5,59.58,0,29.94,23.81,68.9,48,90.77,1.35,1.21,0,7.23,0,7.23Z" transform="translate(0 -126.39)"/><path class="cls-5" d="M350.9,856.42s-1.66-8.17.06-10.13c27.91-31.77,40.65-60.16,40.65-88.88,0-30.58-17.66-51-40.15-58.53,28.42,2.81,53.5,24.22,53.5,59.58,0,29.94-23.82,68.9-48,90.77-1.34,1.21,0,7.23,0,7.23Z" transform="translate(0 -126.39)"/><path class="cls-9" d="M383.26,711.42c-9.59-8-22.22-12.56-37.19-12.88h0l-.95,0c8.64,3.71,16,10.55,21.47,18.11a74.67,74.67,0,0,1,12.73,31.54c1.92,11.42,2.07,23.52-1.11,34.74-3.83,13.54-10.77,26.17-16.42,39-1.45,3.3-2.79,6.64-4.3,9.91a58.91,58.91,0,0,0-3.5,8.56c-1.44,5.16-1.31,10.65-1.13,16l4.09,0s-1.34-6,0-7.23c24.19-21.87,48-60.83,48-90.77C405,737.61,396.24,721.61,383.26,711.42Z" transform="translate(0 -126.39)"/><rect class="cls-2" x="1531.73" y="794.82" width="1.65" height="21.97"/><rect class="cls-2" x="1562.81" y="794.82" width="1.63" height="21.97"/><path class="cls-2" d="M1567,968.66a1.35,1.35,0,0,1-1.37,1.34l-34.74,0a1.35,1.35,0,0,1-1.37-1.34l-3.94-31.75a1.36,1.36,0,0,1,1.38-1.33l42.58,0a1.37,1.37,0,0,1,1.38,1.35Z" transform="translate(0 -126.39)"/><path class="cls-3" d="M1569.51,935.51h-2.4c-1,8.1-3.28,16.24-8.1,22.54-7.19,9.44-19.19,7.92-29.92,7.29l.4,3.27a1.35,1.35,0,0,0,1.37,1.34l34.74,0a1.35,1.35,0,0,0,1.37-1.34l3.92-31.8A1.37,1.37,0,0,0,1569.51,935.51Z" transform="translate(0 -126.39)"/><path class="cls-4" d="M1550,711.38h0c-.77,0-1.53,0-2.3,0-41.23,0-79.81,29.17-79.81,79.77,0,39.88,31.72,91.77,63.94,120.89,1.79,1.61,0,9.63,0,9.63l32.06,0s-2.3-8-.51-9.55c32.29-28.78,63.36-78,63.36-117.88C1626.76,744.85,1597,712.4,1550,711.38Z" transform="translate(0 -126.39)"/><path class="cls-5" d="M1548.11,711.38h0c-.22,0-.44,0-.66,0-12,0-23.13,29.17-23.13,79.77,0,39.88,9.19,91.77,18.53,120.89.51,1.61,0,9.63,0,9.63l9.28,0s-.66-8-.14-9.55c9.36-28.78,18.36-78,18.36-117.88C1570.35,744.85,1561.73,712.4,1548.11,711.38Z" transform="translate(0 -126.39)"/><path class="cls-5" d="M1539.91,921.59s2.21-10.89-.08-13.49c-37.17-42.31-54.14-80.11-54.14-118.37,0-40.72,23.54-68,53.48-78-37.86,3.73-71.26,32.26-71.26,79.34,0,39.88,31.72,91.77,63.94,120.89,1.79,1.61,0,9.63,0,9.63Z" transform="translate(0 -126.39)"/><path class="cls-5" d="M1556.44,921.64s-2.2-10.88.09-13.48c37.17-42.31,54.13-80.12,54.13-118.37,0-40.72-23.53-68-53.47-78,37.85,3.74,71.25,32.25,71.25,79.35,0,39.87-31.72,91.76-63.94,120.89-1.78,1.61,0,9.62,0,9.62Z" transform="translate(0 -126.39)"/><path class="cls-6" d="M1599.54,728.53c-12.77-10.64-29.6-16.73-49.52-17.15h0l-1.26,0c11.49,4.94,21.3,14,28.58,24.12,9,12.4,14.43,27,17,42s2.75,31.31-1.48,46.25c-5.12,18-14.34,34.86-21.86,51.94-1.94,4.39-3.73,8.83-5.74,13.19a77.21,77.21,0,0,0-4.65,11.4c-1.93,6.87-1.75,14.18-1.5,21.37l5.43,0s-1.78-8,0-9.62c32.22-29.13,63.94-81,63.94-120.89C1628.44,763.41,1616.83,742.1,1599.54,728.53Z" transform="translate(0 -126.39)"/></g></g></svg>